HIERARCHY
ROOT hip
{
  OFFSET 0 0 0
  CHANNELS 6 Xposition Yposition Zposition Zrotation Yrotation Xrotation
  JOINT abdomen
  {
    OFFSET 0 20.6881 -0.73152
    CHANNELS 3 Zrotation Xrotation Yrotation
    JOINT chest
    {
      OFFSET 0 11.7043 -0.48768
      CHANNELS 3 Zrotation Xrotation Yrotation
      JOINT neck
      {
        OFFSET 0 22.1894 -2.19456
        CHANNELS 3 Zrotation Xrotation Yrotation
        JOINT head
        {
          OFFSET -0.24384 7.07133 1.2192
          CHANNELS 3 Zrotation Xrotation Yrotation
          JOINT leftEye
          {
            OFFSET 4.14528 8.04674 8.04672
            CHANNELS 3 Zrotation Xrotation Yrotation
            End Site
            {
              OFFSET 1 0 0
            }
          }
          JOINT rightEye
          {
            OFFSET -3.6576 8.04674 8.04672
            CHANNELS 3 Zrotation Xrotation Yrotation
            End Site
            {
              OFFSET 1 0 0
            }
          }
        }
      }
      JOINT rCollar
      {
        OFFSET -2.68224 19.2634 -4.8768
        CHANNELS 3 Zrotation Xrotation Yrotation
        JOINT rShldr
        {
          OFFSET -8.77824 -1.95073 1.46304
          CHANNELS 3 Zrotation Xrotation Yrotation
          JOINT rForeArm
          {
            OFFSET -28.1742 -1.7115 0.48768
            CHANNELS 3 Zrotation Xrotation Yrotation
            JOINT rHand
            {
              OFFSET -22.5879 0.773209 7.07136
              CHANNELS 3 Zrotation Xrotation Yrotation
              JOINT rThumb1
              {
                OFFSET -1.2192 -0.487915 3.41376
                CHANNELS 3 Zrotation Xrotation Yrotation
                JOINT rThumb2
                {
                  OFFSET -3.37035 -0.52449 3.41376
                  CHANNELS 3 Zrotation Xrotation Yrotation
                  End Site
                  {
                    OFFSET -1.78271 -1.18214 1.43049
                  }
                }
              }
              JOINT rIndex1
              {
                OFFSET -7.75947 0.938293 5.60832
                CHANNELS 3 Zrotation Xrotation Yrotation
                JOINT rIndex2
                {
                  OFFSET -2.54057 -0.884171 1.56538
                  CHANNELS 3 Zrotation Xrotation Yrotation
                  End Site
                  {
                    OFFSET -1.62519 -0.234802 1.16502
                  }
                }
              }
              JOINT rMid1
              {
                OFFSET -8.24714 1.18213 3.41376
                CHANNELS 3 Zrotation Xrotation Yrotation
                JOINT rMid2
                {
                  OFFSET -3.10165 -0.590103 1.0647
                  CHANNELS 3 Zrotation Xrotation Yrotation
                  End Site
                  {
                    OFFSET -2.48547 -0.328903 0.83742
                  }
                }
              }
              JOINT rRing1
              {
                OFFSET -8.82822 0.546677 1.51678
                CHANNELS 3 Zrotation Xrotation Yrotation
                JOINT rRing2
                {
                  OFFSET -2.60934 -0.819778 -0.0198488
                  CHANNELS 3 Zrotation Xrotation Yrotation
                  End Site
                  {
                    OFFSET -2.33842 -0.294052 0.168128
                  }
                }
              }
              JOINT rPinky1
              {
                OFFSET -8.27202 -0.0477905 -0.4584
                CHANNELS 3 Zrotation Xrotation Yrotation
                JOINT rPinky2
                {
                  OFFSET -1.82734 -0.647385 -0.700984
                  CHANNELS 3 Zrotation Xrotation Yrotation
                  End Site
                  {
                    OFFSET -1.69225 -0.51767 -0.607171
                  }
                }
              }
            }
          }
        }
      }
      JOINT lCollar
      {
        OFFSET 2.68224 19.2634 -4.8768
        CHANNELS 3 Zrotation Xrotation Yrotation
        JOINT lShldr
        {
          OFFSET 8.77824 -1.95073 1.46304
          CHANNELS 3 Zrotation Xrotation Yrotation
          JOINT lForeArm
          {
            OFFSET 28.1742 -1.7115 0.48768
            CHANNELS 3 Zrotation Xrotation Yrotation
            JOINT lHand
            {
              OFFSET 22.5879 0.773209 7.07136
              CHANNELS 3 Zrotation Xrotation Yrotation
              JOINT lThumb1
              {
                OFFSET 1.2192 -0.487915 3.41376
                CHANNELS 3 Zrotation Xrotation Yrotation
                JOINT lThumb2
                {
                  OFFSET 3.37035 -0.52449 3.41376
                  CHANNELS 3 Zrotation Xrotation Yrotation
                  End Site
                  {
                    OFFSET 1.78271 -1.18214 1.43049
                  }
                }
              }
              JOINT lIndex1
              {
                OFFSET 7.75947 0.938293 5.60832
                CHANNELS 3 Zrotation Xrotation Yrotation
                JOINT lIndex2
                {
                  OFFSET 2.54057 -0.884171 1.56538
                  CHANNELS 3 Zrotation Xrotation Yrotation
                  End Site
                  {
                    OFFSET 1.62519 -0.234802 1.16502
                  }
                }
              }
              JOINT lMid1
              {
                OFFSET 8.24714 1.18213 3.41376
                CHANNELS 3 Zrotation Xrotation Yrotation
                JOINT lMid2
                {
                  OFFSET 3.10165 -0.590103 1.0647
                  CHANNELS 3 Zrotation Xrotation Yrotation
                  End Site
                  {
                    OFFSET 2.48547 -0.328903 0.83742
                  }
                }
              }
              JOINT lRing1
              {
                OFFSET 8.82822 0.546677 1.51678
                CHANNELS 3 Zrotation Xrotation Yrotation
                JOINT lRing2
                {
                  OFFSET 2.60934 -0.819778 -0.0198488
                  CHANNELS 3 Zrotation Xrotation Yrotation
                  End Site
                  {
                    OFFSET 2.33842 -0.294052 0.168128
                  }
                }
              }
              JOINT lPinky1
              {
                OFFSET 8.27202 -0.0477905 -0.4584
                CHANNELS 3 Zrotation Xrotation Yrotation
                JOINT lPinky2
                {
                  OFFSET 1.82734 -0.647385 -0.700984
                  CHANNELS 3 Zrotation Xrotation Yrotation
                  End Site
                  {
                    OFFSET 1.69225 -0.51767 -0.607171
                  }
                }
              }
            }
          }
        }
      }
    }
  }
  JOINT rButtock
  {
    OFFSET -8.77824 4.35084 1.2192
    CHANNELS 3 Zrotation Xrotation Yrotation
    JOINT rThigh
    {
      OFFSET 0 -1.70687 -2.19456
      CHANNELS 3 Zrotation Xrotation Yrotation
      JOINT rShin
      {
        OFFSET 0 -36.8199 0.73152
        CHANNELS 3 Zrotation Xrotation Yrotation
        JOINT rFoot
        {
          OFFSET 0.73152 -45.1104 -5.12064
          CHANNELS 3 Zrotation Xrotation Yrotation
          End Site
          {
            OFFSET -1.1221 -3.69964 12.103
          }
        }
      }
    }
  }
  JOINT lButtock
  {
    OFFSET 8.77824 4.35084 1.2192
    CHANNELS 3 Zrotation Xrotation Yrotation
    JOINT lThigh
    {
      OFFSET 0 -1.70687 -2.19456
      CHANNELS 3 Zrotation Xrotation Yrotation
      JOINT lShin
      {
        OFFSET 0 -36.8199 0.73152
        CHANNELS 3 Zrotation Xrotation Yrotation
        JOINT lFoot
        {
          OFFSET -0.73152 -45.1104 -5.12064
          CHANNELS 3 Zrotation Xrotation Yrotation
          End Site
          {
            OFFSET 1.1221 -3.69964 12.103
          }
        }
      }
    }
  }
}
MOTION
Frames:	5
Frame Time:	0.00833333
101.228 85.9673 24.1813 -7.0152 -7.6928 2.3567 10.6688 -0.274924 8.51631 -2.32698 0.583214 2.46117 -2.09732 6.01144 -3.78189 0.775314 -13.5249 -7.00765 -0.0 0.0 0.0 -0.0 0.0 0.0 -1.0883e-14 6.34711e-14 -1.01162e-13 68.8303 8.04883 42.034 -15.5418 -8.26394 28.7208 -0.0744312 -7.68441 -1.08674 6.55126e-10 -2.63315e-09 5.01381e-10 1.12844e-09 -4.50409e-09 8.73555e-10 6.55134e-10 -2.63315e-09 5.01365e-10 7.73091 5.47488 0.417314 6.55124e-10 -2.63315e-09 5.0138e-10 2.90554 0.965183 0.102902 6.55136e-10 -2.63315e-09 5.01383e-10 10.2786 0.731801 0.0259123 6.55123e-10 -2.63315e-09 5.01386e-10 2.22167 -0.733487 -0.20892 -1.11394e-14 6.34707e-14 -1.01513e-13 -84.3888 -4.2392 15.296 6.69264 -2.36808 -11.7205 0.295692 15.7332 -2.26505 5.71564e-10 -4.01848e-10 9.72589e-10 1.00094e-09 -6.97476e-10 1.6652e-09 5.71563e-10 -4.01843e-10 9.72591e-10 -7.73091 5.47488 -0.417314 5.71567e-10 -4.01845e-10 9.72589e-10 -2.90554 0.965183 -0.102902 5.71555e-10 -4.01845e-10 9.72593e-10 -10.2786 0.731801 -0.0259123 5.71562e-10 -4.01846e-10 9.72591e-10 -2.22167 -0.733487 0.20892 -2.03217e-16 0.0 -3.88251e-19 9.26198 18.0249 11.3231 0.0345548 6.45847 0.402466 -0.431328 0.175475 7.31144 2.03217e-16 0.0 3.88251e-19 9.0553 -35.9917 -8.88318 0.0822694 20.8393 -0.546778 2.11648 -6.94016 7.7199
101.256 85.829 25.4419 -7.0483 -8.1566 2.6287 10.3258 -0.647634 8.65534 -2.29119 0.526458 2.49467 -1.96986 6.01761 -3.78951 0.806509 -13.3104 -7.04183 -0.0 0.0 0.0 -0.0 0.0 0.0 -1.43847e-14 5.70504e-14 -1.86659e-13 68.4381 8.08365 42.418 -15.762 -8.46794 29.1718 -0.0763438 -7.85838 -1.11147 1.60181e-09 -6.67057e-09 6.13087e-10 2.76403e-09 -1.14776e-08 1.07055e-09 1.60182e-09 -6.67057e-09 6.13068e-10 7.73091 5.47488 0.417314 1.60181e-09 -6.67057e-09 6.13084e-10 2.90554 0.965183 0.102902 1.60182e-09 -6.67057e-09 6.13088e-10 10.2786 0.731801 0.0259123 1.60181e-09 -6.67057e-09 6.1309e-10 2.22167 -0.733487 -0.20892 -1.46388e-14 5.705e-14 -1.87007e-13 -83.4107 -7.31791 16.8776 6.08053 -2.0798 -10.63 0.449504 18.7095 -2.7281 1.23746e-09 5.45508e-10 9.99798e-10 2.15302e-09 9.42923e-10 1.7087e-09 1.23746e-09 5.45514e-10 9.99801e-10 -7.73091 5.47488 -0.417314 1.23746e-09 5.45511e-10 9.99801e-10 -2.90554 0.965183 -0.102902 1.23745e-09 5.45512e-10 9.99803e-10 -10.2786 0.731801 -0.0259123 1.23746e-09 5.45511e-10 9.99804e-10 -2.22167 -0.733487 0.20892 -2.03217e-16 0.0 -3.88251e-19 8.80659 18.4936 11.5758 0.036711 6.57547 0.419669 -0.552961 0.98944 7.63462 2.03217e-16 0.0 3.88251e-19 8.71444 -35.9199 -8.35062 0.0889257 21.6844 -0.567788 1.99924 -6.42046 7.39085
101.195 85.7607 26.8488 -7.4154 -8.3015 2.4647 10.0562 -0.939771 8.67453 -2.23108 0.479828 2.49608 -1.89693 6.02248 -3.7975 0.851394 -13.1232 -7.0657 -0.0 0.0 0.0 -0.0 0.0 0.0 4.28866e-14 4.22943e-14 -1.44428e-13 67.7407 8.38761 42.7168 -16.0492 -8.73534 29.7713 -0.086699 -8.42326 -1.19232 1.09092e-09 -4.26265e-09 4.05948e-10 1.88341e-09 -7.35185e-09 7.0776e-10 1.09092e-09 -4.26266e-09 4.0593e-10 7.73091 5.47488 0.417314 1.09091e-09 -4.26265e-09 4.05944e-10 2.90554 0.965183 0.102902 1.09092e-09 -4.26265e-09 4.05948e-10 10.2786 0.731801 0.0259123 1.09091e-09 -4.26265e-09 4.05951e-10 2.22167 -0.733487 -0.20892 4.26914e-14 4.22937e-14 -1.44749e-13 -82.4577 -10.0105 18.3614 5.53142 -1.83697 -9.6532 0.596363 21.2811 -3.13844 7.426e-10 9.07928e-10 5.90559e-10 1.29263e-09 1.57102e-09 1.01448e-09 7.42596e-10 9.07935e-10 5.90564e-10 -7.73091 5.47488 -0.417314 7.42602e-10 9.07931e-10 5.90563e-10 -2.90554 0.965183 -0.102902 7.42589e-10 9.07931e-10 5.90564e-10 -10.2786 0.731801 -0.0259123 7.42597e-10 9.07931e-10 5.90566e-10 -2.22167 -0.733487 0.20892 -2.03217e-16 0.0 -3.88251e-19 8.4899 19.0603 11.7267 0.0379163 6.64227 0.437187 -0.678432 1.76758 8.01879 2.03217e-16 0.0 3.88251e-19 8.36777 -36.0053 -8.07099 0.0957603 22.6145 -0.584877 1.98374 -5.61391 7.75637
101.366 85.7291 28.2624 -6.8788 -8.2562 2.3367 9.80626 -1.18556 8.61248 -2.14616 0.433866 2.47536 -1.85724 6.02541 -3.80433 0.90513 -12.9413 -7.08052 -0.0 0.0 0.0 -0.0 0.0 0.0 1.42935e-13 2.05199e-14 -2.62365e-14 66.8927 8.82109 42.9389 -16.3635 -9.0324 30.4369 -0.102935 -9.18393 -1.30173 -3.14205e-10 2.05216e-09 -1.01217e-11 -5.40775e-10 3.49973e-09 -2.15379e-11 -3.14194e-10 2.05216e-09 -1.01368e-11 7.73091 5.47488 0.417314 -3.14205e-10 2.05216e-09 -1.01271e-11 2.90554 0.965183 0.102902 -3.14199e-10 2.05217e-09 -1.01216e-11 10.2786 0.731801 0.0259123 -3.14209e-10 2.05216e-09 -1.01176e-11 2.22167 -0.733487 -0.20892 1.42839e-13 2.05191e-14 -2.65129e-14 -81.4784 -12.4801 19.7929 5.01529 -1.6228 -8.73379 0.739205 23.6217 -3.52251 -4.93396e-10 9.72118e-10 -1.15713e-10 -8.52805e-10 1.68311e-09 -1.82419e-10 -4.93403e-10 9.72123e-10 -1.15705e-10 -7.73091 5.47488 -0.417314 -4.93395e-10 9.72119e-10 -1.15709e-10 -2.90554 0.965183 -0.102902 -4.93409e-10 9.72119e-10 -1.15708e-10 -10.2786 0.731801 -0.0259123 -4.93398e-10 9.72119e-10 -1.15705e-10 -2.22167 -0.733487 0.20892 -2.03217e-16 0.0 -3.88251e-19 8.2544 19.6654 11.8006 0.0384806 6.72559 0.456747 -0.811022 2.51709 8.44077 2.03217e-16 0.0 3.88251e-19 7.99925 -36.216 -7.90478 0.103675 23.679 -0.599918 1.99892 -4.5733 8.55062
101.542 85.6714 29.5051 -6.4064 -8.022 2.3931 9.4422 -1.39109 8.49993 -2.05086 0.379512 2.44036 -1.84497 6.03865 -3.81999 1.02199 -12.7982 -7.10105 -0.0 0.0 0.0 -0.0 0.0 0.0 2.35181e-13 -3.5155e-16 1.01768e-13 66.1845 9.22062 43.0588 -16.6785 -9.33501 31.1145 -0.120122 -9.87185 -1.40128 -1.82812e-09 8.88916e-09 -4.19935e-10 -3.15324e-09 1.52567e-08 -7.40242e-10 -1.82811e-09 8.88915e-09 -4.19947e-10 7.73091 5.47488 0.417314 -1.82812e-09 8.88915e-09 -4.19942e-10 2.90554 0.965183 0.102902 -1.82812e-09 8.88916e-09 -4.19936e-10 10.2786 0.731801 0.0259123 -1.82813e-09 8.88915e-09 -4.1993e-10 2.22167 -0.733487 -0.20892 2.3518e-13 -3.52361e-16 1.01538e-13 -80.5405 -14.4518 21.1122 4.54374 -1.43553 -7.89634 0.863933 25.4524 -3.8335 -1.7581e-09 8.43605e-10 -7.98132e-10 -3.04765e-09 1.46154e-09 -1.33914e-09 -1.75811e-09 8.43609e-10 -7.98121e-10 -7.73091 5.47488 -0.417314 -1.7581e-09 8.43605e-10 -7.98128e-10 -2.90554 0.965183 -0.102902 -1.75812e-09 8.43605e-10 -7.98127e-10 -10.2786 0.731801 -0.0259123 -1.7581e-09 8.43605e-10 -7.98125e-10 -2.22167 -0.733487 0.20892 -2.03217e-16 0.0 -3.88251e-19 8.00918 20.0706 11.7772 0.0390687 7.14494 0.478562 -0.957937 3.3445 8.85713 2.03217e-16 0.0 3.88251e-19 7.55284 -36.4506 -7.70245 0.113286 24.7678 -0.6087 1.96252 -3.45212 9.30241
